<svg width="236" height="236" viewBox="0 0 236 236" fill="none" xmlns="http://www.w3.org/2000/svg">
<path d="M15 118H221M18.5107 91.3415L217.491 144.658M28.8002 66.5L207.201 169.5M45.1687 45.1681L190.833 190.832M66.501 28.7993L169.501 207.201M91.3426 18.5097L144.659 217.49M118.001 15L118.001 221M144.659 18.5097L91.3428 217.49M169.502 28.7993L66.5015 207.201M190.832 45.1681L45.1685 190.832M207.201 66.5L28.8002 169.5M217.491 91.3415L18.5102 144.658M200.082 117.768C200.082 163.228 163.229 200.081 117.769 200.081C72.3091 200.081 35.4565 163.228 35.4565 117.768C35.4565 72.3079 72.3091 35.4553 117.769 35.4553C163.229 35.4553 200.082 72.3079 200.082 117.768Z" stroke="#FFA73F" stroke-width="30" stroke-linecap="round" stroke-linejoin="round"/>
</svg>
