<svg width="149" height="28" viewBox="0 0 149 28" fill="none" xmlns="http://www.w3.org/2000/svg">
<path d="M19.7897 3.6775C18.2156 3.15306 16.5027 2.86415 14.7112 2.86415C12.9196 2.86415 11.2068 3.15192 9.6328 3.67625C9.49509 3.72213 9.33686 3.7109 9.20727 3.64551C7.49921 2.78371 4.61249 2.10347 4.34502 2.04145C4.33028 2.03803 4.31775 2.03433 4.30325 2.03003C3.84376 1.89396 3.37796 2.23708 3.37615 2.72053L3.35768 7.66293C3.35726 7.77586 3.31685 7.88486 3.24537 7.97229C1.6656 9.90421 0.739081 12.2541 0.739081 14.7886C0.739081 15.6621 0.690342 16.4818 0.644862 17.2468C0.347463 22.249 0.189623 24.9076 14.7113 24.9076C29.233 24.9076 29.075 22.2504 28.7776 17.2482L28.7776 17.248C28.7321 16.4831 28.6834 15.6633 28.6834 14.7899C28.6834 12.2553 27.7569 9.90546 26.1771 7.97354C26.1056 7.88611 26.0652 7.77711 26.0648 7.66418L26.0463 2.72178C26.0445 2.23833 25.5787 1.89521 25.1192 2.03128C25.1047 2.03558 25.0922 2.03929 25.0774 2.0427C24.81 2.10472 21.9233 2.78496 20.2152 3.64676C20.0856 3.71215 19.9274 3.72338 19.7897 3.6775Z" stroke="#5335A3" stroke-width="0.963592" stroke-linejoin="round"/>
<ellipse cx="7.6743" cy="16.1415" rx="3.49302" ry="3.25212" fill="#BBA8EE"/>
<ellipse cx="10.3242" cy="12.8893" rx="2.52943" ry="2.64988" fill="#5335A3"/>
<circle cx="9.11971" cy="11.7564" r="0.361347" fill="#F5F1FF"/>
<ellipse cx="21.6464" cy="16.1415" rx="3.49302" ry="3.25212" fill="#BBA8EE"/>
<ellipse cx="18.9965" cy="12.8893" rx="2.52943" ry="2.64988" fill="#5335A3"/>
<circle cx="17.792" cy="11.7564" r="0.361347" fill="#F5F1FF"/>
<path d="M4.75584 3.72299C4.75101 3.5516 4.92172 3.43018 5.08204 3.49096L7.80404 4.52297C7.98668 4.59222 8.01531 4.83861 7.85341 4.94789L5.21067 6.73174C5.05322 6.83802 4.84044 6.72874 4.8351 6.53885L4.75584 3.72299Z" fill="#BBA8EE"/>
<path d="M24.8319 3.83029C24.8367 3.6589 24.666 3.53748 24.5057 3.59826L21.7837 4.63027C21.6011 4.69952 21.5724 4.94591 21.7343 5.05519L24.3771 6.83904C24.5345 6.94532 24.7473 6.83604 24.7526 6.64615L24.8319 3.83029Z" fill="#BBA8EE"/>
<path d="M12.8754 18.381C12.8727 18.4125 12.8704 18.4437 12.8682 18.4746C12.7414 20.311 14.8762 20.2218 14.8762 18.381V18.381V18.381C14.8762 20.2182 17.1762 20.3307 16.8993 18.5146C16.8926 18.4706 16.8852 18.4261 16.877 18.381" stroke="#5335A3" stroke-width="0.963592" stroke-linecap="round"/>
<path d="M5.38577 16.3334L2.63265 15.972M5.38577 17.297L2.495 17.6583" stroke="#5335A3" stroke-width="0.963592" stroke-linecap="round" stroke-linejoin="round"/>
<path d="M23.9349 16.3334L26.6881 15.972M23.9349 17.297L26.8257 17.6583" stroke="#5335A3" stroke-width="0.963592" stroke-linecap="round" stroke-linejoin="round"/>
<path d="M38 24.24C37.8 24.24 37.6 24.22 37.4 24.18V21.94C37.6 21.98 37.8 22 38 22C38.2667 22 38.4867 21.9333 38.66 21.8C38.8467 21.6667 39.0133 21.4533 39.16 21.16C39.32 20.8667 39.4933 20.48 39.68 20L35.2 9.4H38.16L41.04 16.72L43.66 9.4H46.4L42.32 20C41.9333 21 41.56 21.8067 41.2 22.42C40.84 23.0467 40.4133 23.5067 39.92 23.8C39.44 24.0933 38.8 24.24 38 24.24ZM51.4416 20.24C50.2149 20.24 49.2882 19.8933 48.6616 19.2C48.0349 18.4933 47.7216 17.4067 47.7216 15.94V9.4H50.3416V15.58C50.3416 16.38 50.4949 16.9867 50.8016 17.4C51.1216 17.8 51.6549 18 52.4016 18C52.9349 18 53.3616 17.8867 53.6816 17.66C54.0149 17.4333 54.2616 17.14 54.4216 16.78C54.5816 16.42 54.6616 16.02 54.6616 15.58V9.4H57.3016V20H54.8616V18.42C54.6082 18.9133 54.2016 19.34 53.6416 19.7C53.0949 20.06 52.3616 20.24 51.4416 20.24ZM59.7161 20V9.4H62.1161V10.98C62.3561 10.5133 62.7428 10.0933 63.2761 9.72C63.8228 9.34667 64.4494 9.16 65.1561 9.16C66.0094 9.16 66.6761 9.33333 67.1561 9.68C67.6494 10.0267 67.9961 10.4867 68.1961 11.06C68.4894 10.5 68.9094 10.0467 69.4561 9.7C70.0161 9.34 70.6761 9.16 71.4361 9.16C72.5561 9.16 73.4094 9.48667 73.9961 10.14C74.5961 10.7933 74.8961 11.78 74.8961 13.1V20H72.2561V13.7C72.2561 12.86 72.1161 12.2667 71.8361 11.92C71.5694 11.5733 71.1361 11.4 70.5361 11.4C70.1894 11.4 69.8694 11.4933 69.5761 11.68C69.2828 11.8533 69.0428 12.1133 68.8561 12.46C68.6828 12.8067 68.5961 13.22 68.5961 13.7V20H65.9761V13.7C65.9761 12.86 65.8361 12.2667 65.5561 11.92C65.2894 11.5733 64.8561 11.4 64.2561 11.4C63.9094 11.4 63.5828 11.4933 63.2761 11.68C62.9828 11.8533 62.7494 12.1133 62.5761 12.46C62.4161 12.8067 62.3361 13.22 62.3361 13.7V20H59.7161ZM81.9961 20.24C81.0361 20.24 80.1494 20.0467 79.3361 19.66C78.5361 19.26 77.8961 18.66 77.4161 17.86C76.9361 17.0467 76.6961 16.0267 76.6961 14.8V14.4C76.6961 13.2267 76.9228 12.2533 77.3761 11.48C77.8428 10.7067 78.4628 10.1267 79.2361 9.74C80.0094 9.35333 80.8628 9.16 81.7961 9.16C83.4628 9.16 84.7294 9.6 85.5961 10.48C86.4628 11.36 86.8961 12.6333 86.8961 14.3V15.42H79.3961C79.4228 16.0467 79.5561 16.56 79.7961 16.96C80.0494 17.3467 80.3694 17.6333 80.7561 17.82C81.1428 17.9933 81.5561 18.08 81.9961 18.08C82.6761 18.08 83.1894 17.98 83.5361 17.78C83.8828 17.58 84.1294 17.2867 84.2761 16.9H86.6961C86.4828 18.0067 85.9561 18.84 85.1161 19.4C84.2761 19.96 83.2361 20.24 81.9961 20.24ZM81.8961 11.32C81.4828 11.32 81.0828 11.3867 80.6961 11.52C80.3094 11.6533 80.0028 11.8933 79.7761 12.24C79.5494 12.5733 79.4228 13.02 79.3961 13.58H84.3361C84.3228 12.98 84.2028 12.52 83.9761 12.2C83.7628 11.8667 83.4761 11.64 83.1161 11.52C82.7561 11.3867 82.3494 11.32 81.8961 11.32ZM88.8177 20V6H91.4377V13.76L95.3577 9.4H98.3777L94.3177 13.94L98.7777 20H95.7377L92.6177 15.68L91.4377 16.94V20H88.8177ZM103.286 20.24C102.526 20.24 101.88 20.1 101.346 19.82C100.813 19.5267 100.406 19.1267 100.126 18.62C99.8463 18.1133 99.7063 17.54 99.7063 16.9C99.7063 15.8333 100.02 15.0333 100.646 14.5C101.286 13.9667 102.24 13.7 103.506 13.7H106.666V13.2C106.666 12.5067 106.506 12.02 106.186 11.74C105.88 11.46 105.386 11.32 104.706 11.32C104.106 11.32 103.673 11.4267 103.406 11.64C103.14 11.84 102.986 12.0933 102.946 12.4H100.306C100.346 11.7867 100.54 11.24 100.886 10.76C101.246 10.2667 101.753 9.88 102.406 9.6C103.073 9.30667 103.873 9.16 104.806 9.16C105.713 9.16 106.5 9.29333 107.166 9.56C107.846 9.82667 108.373 10.26 108.746 10.86C109.12 11.4467 109.306 12.24 109.306 13.24V17.3C109.306 17.86 109.313 18.3533 109.326 18.78C109.353 19.1933 109.393 19.6 109.446 20H106.986C106.933 19.7067 106.9 19.4867 106.886 19.34C106.886 19.18 106.886 18.9467 106.886 18.64C106.606 19.0667 106.166 19.44 105.566 19.76C104.966 20.08 104.206 20.24 103.286 20.24ZM104.106 18.2C104.533 18.2 104.94 18.1267 105.326 17.98C105.726 17.82 106.046 17.58 106.286 17.26C106.54 16.9267 106.666 16.5067 106.666 16V15.5H104.006C103.5 15.5 103.1 15.62 102.806 15.86C102.526 16.0867 102.386 16.4 102.386 16.8C102.386 17.2267 102.533 17.5667 102.826 17.82C103.12 18.0733 103.546 18.2 104.106 18.2ZM113.575 20L110.615 9.4H113.455L115.175 16.4L117.315 9.4H119.755L121.995 16.4L123.815 9.4H126.415L123.455 20H120.815L118.475 12.6L116.215 20H113.575ZM130.806 20.24C130.046 20.24 129.399 20.1 128.866 19.82C128.332 19.5267 127.926 19.1267 127.646 18.62C127.366 18.1133 127.226 17.54 127.226 16.9C127.226 15.8333 127.539 15.0333 128.166 14.5C128.806 13.9667 129.759 13.7 131.026 13.7H134.186V13.2C134.186 12.5067 134.026 12.02 133.706 11.74C133.399 11.46 132.906 11.32 132.226 11.32C131.626 11.32 131.192 11.4267 130.926 11.64C130.659 11.84 130.506 12.0933 130.466 12.4H127.826C127.866 11.7867 128.059 11.24 128.406 10.76C128.766 10.2667 129.272 9.88 129.926 9.6C130.592 9.30667 131.392 9.16 132.326 9.16C133.232 9.16 134.019 9.29333 134.686 9.56C135.366 9.82667 135.892 10.26 136.266 10.86C136.639 11.4467 136.826 12.24 136.826 13.24V17.3C136.826 17.86 136.832 18.3533 136.846 18.78C136.872 19.1933 136.912 19.6 136.966 20H134.506C134.452 19.7067 134.419 19.4867 134.406 19.34C134.406 19.18 134.406 18.9467 134.406 18.64C134.126 19.0667 133.686 19.44 133.086 19.76C132.486 20.08 131.726 20.24 130.806 20.24ZM131.626 18.2C132.052 18.2 132.459 18.1267 132.846 17.98C133.246 17.82 133.566 17.58 133.806 17.26C134.059 16.9267 134.186 16.5067 134.186 16V15.5H131.526C131.019 15.5 130.619 15.62 130.326 15.86C130.046 16.0867 129.906 16.4 129.906 16.8C129.906 17.2267 130.052 17.5667 130.346 17.82C130.639 18.0733 131.066 18.2 131.626 18.2ZM139.35 20V9.4H141.97V20H139.35ZM140.65 8.38C140.183 8.38 139.796 8.23333 139.49 7.94C139.196 7.64667 139.05 7.26667 139.05 6.8C139.05 6.33333 139.196 5.95333 139.49 5.66C139.796 5.36667 140.176 5.22 140.63 5.22C141.11 5.22 141.496 5.36667 141.79 5.66C142.096 5.95333 142.25 6.33333 142.25 6.8C142.25 7.26667 142.096 7.64667 141.79 7.94C141.496 8.23333 141.116 8.38 140.65 8.38ZM144.779 20V9.4H147.399V20H144.779ZM146.079 8.38C145.613 8.38 145.226 8.23333 144.919 7.94C144.626 7.64667 144.479 7.26667 144.479 6.8C144.479 6.33333 144.626 5.95333 144.919 5.66C145.226 5.36667 145.606 5.22 146.059 5.22C146.539 5.22 146.926 5.36667 147.219 5.66C147.526 5.95333 147.679 6.33333 147.679 6.8C147.679 7.26667 147.526 7.64667 147.219 7.94C146.926 8.23333 146.546 8.38 146.079 8.38Z" fill="#5336A3"/>
</svg>
