<svg width="48" height="40" viewBox="0 0 48 40" fill="none" xmlns="http://www.w3.org/2000/svg">
<path d="M32.0127 4.70649C29.4731 3.86036 26.7095 3.39422 23.819 3.39422C20.9285 3.39422 18.1651 3.85851 15.6255 4.70448C15.4033 4.77849 15.1481 4.76037 14.939 4.65488C12.1832 3.26444 7.52572 2.16693 7.09418 2.06688C7.0704 2.06136 7.05019 2.05538 7.02679 2.04845C6.28544 1.82891 5.53392 2.3825 5.531 3.16251L5.50119 11.1366C5.50051 11.3188 5.43533 11.4947 5.31999 11.6357C2.77119 14.7527 1.27633 18.544 1.27633 22.6332C1.27633 24.0425 1.19769 25.3651 1.12432 26.5992C0.644491 34.6699 0.38983 38.9592 23.8192 38.9592C47.2486 38.9592 46.9937 34.6721 46.5139 26.6015L46.5139 26.6014C46.4405 25.3672 46.3619 24.0446 46.3619 22.6353C46.3619 18.546 44.867 14.7547 42.3182 11.6377C42.2029 11.4967 42.1377 11.3208 42.137 11.1386L42.1072 3.16453C42.1043 2.38452 41.3527 1.83093 40.6114 2.05047C40.588 2.0574 40.5678 2.06338 40.544 2.0689C40.1125 2.16895 35.455 3.26646 32.6992 4.6569C32.4901 4.76239 32.2349 4.78051 32.0127 4.70649Z" stroke="#5335A3" stroke-width="1.55467" stroke-linejoin="round"/>
<ellipse cx="12.4657" cy="24.8134" rx="5.63567" ry="5.247" fill="#BBA8EE"/>
<ellipse cx="16.7412" cy="19.5683" rx="4.081" ry="4.27533" fill="#5335A3"/>
<circle cx="14.7978" cy="17.7393" r="0.583" fill="#F5F1FF"/>
<ellipse cx="35.0087" cy="24.8134" rx="5.63567" ry="5.247" fill="#BBA8EE"/>
<ellipse cx="30.7333" cy="19.5683" rx="4.081" ry="4.27533" fill="#5335A3"/>
<circle cx="28.79" cy="17.7393" r="0.583" fill="#F5F1FF"/>
<path d="M7.75705 4.77949C7.74926 4.50297 8.02468 4.30706 8.28335 4.40514L12.675 6.07019C12.9697 6.18191 13.0159 6.57945 12.7547 6.75576L8.49089 9.63383C8.23685 9.8053 7.89355 9.62899 7.88492 9.32262L7.75705 4.77949Z" fill="#BBA8EE"/>
<path d="M40.1477 4.95137C40.1555 4.67484 39.8801 4.47894 39.6214 4.57701L35.2297 6.24206C34.9351 6.35378 34.8889 6.75132 35.1501 6.92763L39.4139 9.8057C39.6679 9.97718 40.0112 9.80087 40.0199 9.49449L40.1477 4.95137Z" fill="#BBA8EE"/>
<path d="M20.8569 28.4297C20.8526 28.4805 20.8488 28.5308 20.8453 28.5806C20.6407 31.5434 24.085 31.3995 24.085 28.4297V28.4297V28.4297C24.085 31.3938 27.7959 31.5754 27.3491 28.6451C27.3383 28.5742 27.3263 28.5024 27.3131 28.4297" stroke="#37188B" stroke-width="1.55467" stroke-linecap="round"/>
<path d="M8.77338 25.126L4.33147 24.543M8.77338 26.6806L4.10938 27.2636" stroke="#37188B" stroke-width="1.55467" stroke-linecap="round" stroke-linejoin="round"/>
<path d="M38.7007 25.126L43.1427 24.543M38.7007 26.6806L43.3647 27.2636" stroke="#37188B" stroke-width="1.55467" stroke-linecap="round" stroke-linejoin="round"/>
</svg>
