<svg width="48" height="40" viewBox="0 0 48 40" fill="none" xmlns="http://www.w3.org/2000/svg">
<path d="M32.0127 4.70649C29.4731 3.86036 26.7095 3.39422 23.819 3.39422C20.9285 3.39422 18.1651 3.85851 15.6255 4.70448C15.4033 4.77849 15.1481 4.76037 14.939 4.65488C12.1832 3.26444 7.52572 2.16693 7.09418 2.06688C7.0704 2.06136 7.05019 2.05538 7.02679 2.04845C6.28544 1.82891 5.53392 2.3825 5.531 3.16251L5.50119 11.1366C5.50051 11.3188 5.43533 11.4947 5.31999 11.6357C2.77119 14.7527 1.27633 18.544 1.27633 22.6332C1.27633 24.0425 1.19769 25.3651 1.12432 26.5992C0.644491 34.6699 0.38983 38.9592 23.8192 38.9592C47.2486 38.9592 46.9937 34.6721 46.5139 26.6015L46.5139 26.6014C46.4405 25.3672 46.3619 24.0446 46.3619 22.6353C46.3619 18.546 44.867 14.7547 42.3182 11.6377C42.2029 11.4967 42.1377 11.3208 42.137 11.1386L42.1072 3.16453C42.1043 2.38452 41.3527 1.83093 40.6114 2.05047C40.588 2.0574 40.5678 2.06338 40.544 2.0689C40.1125 2.16895 35.455 3.26646 32.6992 4.6569C32.4901 4.76239 32.2349 4.78051 32.0127 4.70649Z" fill="white" stroke="#5335A3" stroke-width="1.55467" stroke-linejoin="round"/>
<ellipse cx="12.4656" cy="24.816" rx="5.63567" ry="5.247" fill="#BBA8EE"/>
<ellipse cx="16.741" cy="19.569" rx="4.081" ry="4.27533" fill="#5335A3"/>
<circle cx="14.7977" cy="17.7411" r="0.583" fill="#F5F1FF"/>
<ellipse cx="35.0083" cy="24.816" rx="5.63567" ry="5.247" fill="#BBA8EE"/>
<ellipse cx="30.733" cy="19.569" rx="4.081" ry="4.27533" fill="#5335A3"/>
<circle cx="28.7897" cy="17.7411" r="0.583" fill="#F5F1FF"/>
<path d="M7.75699 4.7798C7.7492 4.50327 8.02462 4.30737 8.28329 4.40544L12.675 6.07049C12.9696 6.18221 13.0158 6.57975 12.7546 6.75606L8.49082 9.63413C8.23678 9.80561 7.89349 9.6293 7.88486 9.32292L7.75699 4.7798Z" fill="#BBA8EE"/>
<path d="M40.1479 4.9529C40.1556 4.67637 39.8802 4.48047 39.6216 4.57854L35.2299 6.24359C34.9352 6.35531 34.889 6.75285 35.1502 6.92916L39.414 9.80723C39.6681 9.9787 40.0114 9.80239 40.02 9.49602L40.1479 4.9529Z" fill="#BBA8EE"/>
<path d="M20.857 28.4293C20.8528 28.4801 20.849 28.5304 20.8455 28.5803C20.6408 31.5431 24.0852 31.3992 24.0852 28.4293V28.4293V28.4293C24.0852 31.3934 27.7961 31.575 27.3493 28.6448C27.3385 28.5738 27.3265 28.502 27.3133 28.4293" stroke="#37188B" stroke-width="1.55467" stroke-linecap="round"/>
<path d="M8.77331 25.1256L4.33141 24.5426M8.77331 26.6803L4.10931 27.2633" stroke="#37188B" stroke-width="1.55467" stroke-linecap="round" stroke-linejoin="round"/>
<path d="M38.7007 25.1256L43.1426 24.5426M38.7007 26.6803L43.3647 27.2633" stroke="#37188B" stroke-width="1.55467" stroke-linecap="round" stroke-linejoin="round"/>
</svg>
